<?xml version="1.0" standalone="no"?>
<!DOCTYPE svg PUBLIC "-//W3C//DTD SVG 20010904//EN"
 "http://www.w3.org/TR/2001/REC-SVG-20010904/DTD/svg10.dtd">
<svg version="1.0" xmlns="http://www.w3.org/2000/svg"
 width="225.000000pt" height="225.000000pt" viewBox="0 0 225.000000 225.000000"
 preserveAspectRatio="xMidYMid meet">
<metadata>
Created by potrace 1.14, written by Peter Selinger 2001-2017
</metadata>
<g transform="translate(0.000000,225.000000) scale(0.100000,-0.100000)"
fill="#000000" stroke="none">
<path d="M0 1807 c0 -489 2 -509 60 -579 17 -21 36 -38 42 -38 7 0 6 5 -1 14
-22 26 -40 143 -31 204 10 71 36 135 52 130 22 -8 31 -80 14 -109 -8 -14 -18
-46 -21 -70 l-7 -44 22 33 c12 17 27 32 33 32 9 0 8 -3 0 -8 -9 -6 -7 -12 7
-25 25 -21 25 -43 -1 -86 -25 -42 -19 -49 19 -22 17 12 32 21 34 21 1 0 3 -20
3 -45 0 -31 6 -50 19 -62 17 -15 18 -15 7 -1 -7 9 -10 22 -6 28 3 5 1 10 -4
10 -6 0 -11 10 -10 23 0 19 2 18 16 -10 9 -18 20 -33 25 -33 4 0 8 -6 8 -14 0
-7 12 -21 26 -30 24 -17 28 -44 5 -39 -6 2 -11 -2 -11 -8 0 -6 7 -8 16 -5 9 3
18 6 20 6 12 0 0 27 -26 57 -16 18 -30 41 -30 49 0 16 35 -7 108 -68 18 -15
44 -31 57 -34 14 -3 25 -11 25 -17 0 -7 3 -8 10 -1 6 6 0 28 -16 62 l-25 53
19 57 c16 48 17 59 6 70 -8 7 -14 17 -14 23 0 6 7 3 17 -6 14 -15 17 -15 25
-2 4 9 7 26 6 38 -3 21 3 24 60 35 57 10 62 10 56 -5 -4 -9 -8 -36 -8 -61 -1
-25 -5 -52 -10 -60 -7 -12 -6 -13 5 -2 17 16 33 16 26 0 -3 -10 10 -12 52 -9
49 4 52 5 22 10 -53 9 -48 26 8 26 38 0 47 -3 39 -12 -8 -10 -6 -13 5 -13 19
0 41 53 35 85 -6 29 -1 30 38 10 21 -11 30 -11 35 -3 12 18 -32 54 -74 62 -30
6 -37 11 -33 24 3 9 15 48 27 87 l21 69 14 -33 c8 -18 12 -37 9 -41 -3 -5 -1
-10 4 -12 15 -5 43 -78 31 -78 -6 0 -2 -10 10 -22 11 -12 20 -28 20 -35 0 -7
4 -13 10 -13 5 0 9 -3 9 -7 -3 -20 3 -32 27 -56 15 -15 31 -24 37 -20 6 4 8
-18 5 -66 -3 -39 -1 -74 4 -77 4 -3 8 -2 7 3 -4 21 2 34 13 27 6 -4 8 -3 5 4
-9 14 3 43 14 36 5 -3 7 -10 4 -15 -4 -5 -1 -9 5 -9 7 0 32 -17 56 -38 24 -21
62 -48 86 -59 131 -63 167 -73 140 -40 -9 11 -6 13 18 9 18 -3 30 0 30 7 0 6
-4 11 -8 11 -4 0 -16 14 -25 30 -16 27 -17 30 -2 30 9 0 14 -4 11 -9 -5 -8 18
-6 73 5 23 5 23 5 -9 29 -39 29 -93 111 -60 90 6 -3 10 1 10 10 0 10 -6 15
-13 12 -8 -3 -14 1 -14 9 0 7 4 11 8 8 5 -3 10 5 13 18 30 164 41 218 54 248
12 30 15 32 24 16 6 -10 10 -33 11 -51 1 -19 5 -33 10 -32 5 1 16 -15 24 -36
16 -38 16 -39 -15 -66 -39 -37 -29 -60 16 -37 40 21 39 21 34 -15 -6 -41 14
-76 51 -89 43 -15 57 -12 25 6 -32 17 -33 20 -14 27 8 3 26 -6 40 -20 l25 -25
32 31 c28 29 31 37 26 76 -4 43 -4 45 22 44 14 0 42 -6 61 -13 29 -11 35 -18
36 -42 1 -16 6 -39 12 -50 14 -26 17 -82 7 -106 -4 -10 -5 -18 -1 -18 3 0 19
28 36 63 l30 62 -4 -94 c-2 -51 -8 -96 -13 -100 -4 -3 -13 -21 -20 -39 l-12
-33 47 28 c26 15 61 35 79 44 18 9 31 18 29 20 -2 2 12 17 31 32 40 35 44 19
6 -19 -16 -15 -21 -22 -12 -16 9 7 18 10 21 7 12 -12 58 57 78 117 22 65 23
67 43 53 32 -23 36 -18 21 23 -17 47 -17 67 -1 80 27 23 42 -4 41 -76 0 -85
-8 -99 -121 -209 -45 -44 -83 -88 -83 -97 0 -10 12 -29 27 -44 l28 -27 5 42
c4 24 21 64 40 92 l34 49 39 -44 c21 -24 42 -44 47 -44 5 0 9 275 10 610 l1
610 -1126 0 -1125 0 0 -443z m1601 -294 c18 -22 49 -70 49 -78 0 -3 -20 -5
-45 -5 -43 0 -45 1 -54 38 -17 66 -23 121 -16 143 7 20 10 16 29 -29 12 -28
28 -59 37 -69z m-915 26 c-11 -98 -12 -99 -69 -99 l-50 0 22 23 c14 16 19 31
15 43 -4 13 -3 15 3 6 7 -9 14 -6 30 12 12 13 24 33 28 45 13 41 26 22 21 -30z
m1159 -207 c-3 -3 -11 0 -18 7 -9 10 -8 11 6 5 10 -3 15 -9 12 -12z m-885 -12
c6 -11 8 -20 6 -20 -3 0 -10 9 -16 20 -6 11 -8 20 -6 20 3 0 10 -9 16 -20z
m887 -47 c1 -19 -1 -22 -8 -12 -11 17 -12 39 -1 39 4 0 8 -12 9 -27z m-1392
-5 c-4 -13 -9 -32 -12 -43 l-6 -20 -8 20 c-11 28 -10 56 1 30 8 -18 9 -17 9 8
1 15 6 27 12 27 6 0 8 -9 4 -22z m1181 -5 c-10 -10 -19 5 -10 18 6 11 8 11 12
0 2 -7 1 -15 -2 -18z"/>
<path d="M941 1285 c0 -5 6 -19 14 -29 8 -11 15 -15 15 -10 0 6 -7 19 -15 30
-8 10 -14 15 -14 9z"/>
<path d="M1016 1162 c-2 -4 4 -8 14 -8 10 0 16 4 14 8 -3 4 -9 8 -14 8 -5 0
-11 -4 -14 -8z"/>
<path d="M1871 896 c-25 -94 -78 -202 -132 -270 -27 -33 -39 -58 -39 -80 l1
-31 13 24 13 24 7 -35 c3 -19 13 -43 21 -54 14 -18 14 -17 15 11 0 45 18 100
60 189 20 45 40 91 44 104 10 29 17 28 41 -8 22 -33 41 -41 30 -12 -22 59 -13
115 30 182 l22 35 -53 0 -52 0 -21 -79z"/>
<path d="M321 963 c0 -5 4 -16 8 -26 6 -16 9 -16 31 8 l23 25 -31 0 c-18 0
-32 -3 -31 -7z"/>
<path d="M637 700 c3 -11 7 -20 8 -20 1 0 5 9 8 20 3 12 0 20 -8 20 -8 0 -11
-8 -8 -20z"/>
<path d="M1970 375 c0 -5 5 -17 10 -25 5 -8 10 -10 10 -5 0 6 -5 17 -10 25 -5
8 -10 11 -10 5z"/>
<path d="M1854 304 c-18 -14 -18 -14 6 -3 31 14 36 19 24 19 -6 0 -19 -7 -30
-16z"/>
<path d="M645 280 c3 -5 11 -10 16 -10 6 0 7 5 4 10 -3 6 -11 10 -16 10 -6 0
-7 -4 -4 -10z"/>
<path d="M592 260 c0 -14 2 -19 5 -12 2 6 2 18 0 25 -3 6 -5 1 -5 -13z"/>
<path d="M1816 254 c-4 -14 -5 -28 -3 -31 3 -2 8 8 11 23 4 14 5 28 3 31 -3 2
-8 -8 -11 -23z"/>
<path d="M2040 186 c0 -11 30 -66 36 -66 2 0 -3 15 -12 33 -19 36 -24 44 -24
33z"/>
<path d="M2110 63 c18 -24 35 -43 37 -43 7 0 -35 56 -54 71 -9 8 -2 -5 17 -28z"/>
</g>
</svg>
