<?xml version="1.0" standalone="no"?>
<!DOCTYPE svg PUBLIC "-//W3C//DTD SVG 20010904//EN"
 "http://www.w3.org/TR/2001/REC-SVG-20010904/DTD/svg10.dtd">
<svg version="1.0" xmlns="http://www.w3.org/2000/svg"
 width="1000.000000pt" height="1000.000000pt" viewBox="0 0 1000.000000 1000.000000"
 preserveAspectRatio="xMidYMid meet">
<metadata>
Created by potrace 1.14, written by Peter Selinger 2001-2017
</metadata>
<g transform="translate(0.000000,1000.000000) scale(0.100000,-0.100000)"
fill="#000000" stroke="none">
<path d="M1960 9968 c0 -18 0 -40 -1 -48 -1 -27 11 -1655 15 -2027 3 -199 7
-367 10 -372 4 -5 2 -12 -4 -16 -20 -12 -10 -26 11 -15 11 6 25 9 32 7 15 -5
-82 -61 -145 -84 -27 -9 -48 -21 -48 -25 0 -13 38 -9 78 8 20 9 54 22 76 30
36 13 38 13 25 -4 -8 -9 -18 -20 -23 -23 -4 -4 -10 -98 -13 -210 l-4 -204 27
25 c23 21 26 22 20 5 -15 -42 -124 -180 -197 -250 -100 -95 -242 -165 -336
-165 -41 0 -123 21 -123 32 0 4 -8 8 -17 8 -11 0 -13 -3 -7 -9 16 -16 198
-116 243 -134 61 -25 191 -42 289 -40 45 1 82 1 82 -1 0 -1 -6 -16 -14 -32
-39 -78 -61 -301 -38 -379 13 -47 23 -27 28 56 4 79 20 118 82 212 34 51 40
39 8 -20 -14 -26 -29 -66 -34 -88 -8 -31 -7 -716 0 -770 1 -5 -2 -20 -6 -32
-6 -18 -4 -21 15 -16 19 5 20 4 10 -15 -6 -12 -20 -26 -31 -32 -33 -17 -24
-33 14 -26 l34 6 -32 -33 c-18 -19 -43 -38 -57 -41 -19 -6 -21 -5 -9 4 21 15
-35 3 -75 -17 -22 -10 -79 -16 -203 -19 -165 -4 -217 -13 -210 -36 5 -15 -48
-69 -69 -69 -159 0 -229 4 -271 16 -29 7 -52 11 -52 8 0 -2 -7 3 -16 12 -13
13 -29 15 -83 10 -36 -3 -121 -8 -189 -10 -67 -2 -127 -7 -132 -10 -5 -3 -11
-1 -15 4 -3 6 -15 7 -28 2 -32 -11 -469 -1 -484 11 -9 7 -13 7 -13 -1 0 -6 -3
-10 -7 -10 -5 1 -23 1 -41 0 l-32 -1 4 -2452 c2 -1349 6 -2466 7 -2483 2 -16
0 -69 -5 -117 l-8 -88 1531 0 1531 0 41 83 c49 100 53 104 106 113 33 5 44 3
48 -9 6 -14 -13 -67 -36 -98 -9 -12 -7 -23 12 -52 13 -20 30 -37 37 -37 9 0
10 4 1 18 -15 23 35 203 91 332 58 133 197 445 245 550 24 52 63 142 85 200
23 58 56 136 72 174 16 38 51 155 78 260 61 246 113 427 156 547 19 53 45 133
59 178 50 169 101 240 369 521 45 47 155 164 246 260 91 96 194 205 228 242
93 98 122 114 221 127 46 6 191 11 321 11 l236 0 54 -46 c30 -26 59 -52 65
-59 27 -33 210 -190 281 -240 101 -72 144 -111 144 -131 0 -25 -28 -71 -56
-93 -41 -33 -123 -29 -198 9 -32 17 -65 30 -72 30 -8 0 -14 4 -14 9 0 5 -10
11 -22 15 -26 6 -221 133 -226 147 -5 12 -38 11 -60 -1 -9 -6 -104 -16 -211
-23 l-194 -12 -41 -69 c-59 -98 -166 -211 -219 -229 -87 -30 -105 -37 -213
-84 -118 -52 -163 -77 -153 -87 4 -4 22 2 40 13 50 28 280 112 479 174 300 94
352 107 437 107 76 0 79 -1 118 -38 22 -20 56 -55 76 -77 20 -22 73 -71 117
-109 99 -83 236 -241 262 -299 10 -23 37 -148 60 -277 23 -129 46 -252 52
-272 13 -45 -4 -78 -53 -103 -27 -15 -33 -15 -54 -1 -22 14 -23 22 -26 138 -4
121 -5 125 -39 181 -19 32 -94 124 -166 205 -73 82 -143 171 -158 199 -41 81
-62 93 -170 93 -105 0 -140 -10 -486 -140 -118 -44 -219 -80 -223 -80 -5 0
-20 -9 -34 -20 -14 -11 -39 -20 -54 -20 -16 0 -29 -4 -29 -10 0 -20 72 -9 128
19 31 16 77 35 102 44 25 8 81 30 125 47 102 41 295 108 363 126 72 19 181 18
209 -1 13 -9 38 -44 57 -78 20 -35 76 -108 126 -162 218 -238 218 -239 230
-513 16 -346 16 -350 -10 -377 -39 -41 -74 -50 -116 -29 -56 28 -64 47 -33 81
15 15 29 42 32 60 8 42 -27 298 -47 344 -18 43 -119 173 -187 240 -99 100
-157 105 -329 26 -78 -35 -218 -92 -265 -107 -22 -7 -51 -21 -64 -31 -14 -12
-40 -19 -64 -19 -48 0 -45 -9 4 -13 37 -3 184 53 404 154 40 18 108 41 155 52
46 11 117 -41 210 -152 133 -159 137 -169 156 -422 l7 -95 -28 -22 c-22 -18
-36 -21 -64 -16 -20 4 -44 14 -55 23 -22 20 -69 111 -87 169 -9 31 -27 55 -66
88 -37 32 -53 53 -53 70 0 13 -3 24 -6 24 -3 0 -39 -36 -80 -80 -42 -43 -118
-112 -170 -152 -53 -39 -102 -84 -109 -98 -7 -14 -21 -64 -29 -109 -20 -105
-58 -189 -117 -263 -41 -51 -50 -72 -83 -195 -152 -562 -197 -677 -314 -796
l-56 -57 293 0 293 0 -6 22 c-11 38 -34 141 -40 173 -2 17 -14 67 -26 112 -25
95 -25 94 54 183 29 33 64 84 77 115 13 30 29 55 34 55 17 0 67 -200 59 -237
-9 -45 9 -42 25 5 7 20 37 98 66 172 124 313 147 387 156 505 4 61 8 168 8
238 1 108 4 134 21 167 11 22 26 40 33 40 6 0 32 -39 57 -88 44 -85 46 -87 95
-103 31 -10 54 -24 61 -38 13 -25 28 -268 19 -293 -4 -9 -57 -51 -118 -94 -61
-43 -133 -99 -158 -124 -42 -40 -48 -52 -62 -120 -39 -189 -70 -398 -92 -622
l-7 -68 2296 0 2296 0 0 473 0 472 -117 39 c-203 68 -287 94 -318 100 -30 6
-100 46 -80 46 6 0 28 -5 50 -10 74 -17 96 -19 90 -9 -4 5 -12 9 -19 9 -9 0
-10 15 -6 58 5 37 3 60 -4 65 -8 6 -7 10 2 14 6 2 10 8 8 12 -3 4 -6 166 -8
359 -1 194 -5 352 -8 352 -3 0 -6 44 -7 98 -2 125 -10 229 -22 282 -9 39 -8
41 10 37 13 -3 17 -1 12 6 -8 13 -6 904 2 917 3 4 -2 11 -11 14 -8 3 -13 10
-10 15 4 7 19 844 16 916 0 11 -1 121 0 244 0 194 -2 222 -15 217 -9 -3 -15 0
-15 9 0 8 4 15 9 15 16 0 0 843 -17 905 -5 17 -8 59 -7 95 1 36 1 68 -1 72 -2
3 -6 172 -9 375 -4 351 7 676 24 698 5 5 9 27 9 48 1 26 -3 37 -13 37 -12 0
-15 20 -15 108 -2 368 -6 509 -13 505 -5 -3 -4 3 1 14 6 11 8 66 6 133 -3 63
-5 309 -6 545 -1 237 -3 433 -5 437 -4 7 -16 611 -13 656 0 12 1 48 1 80 -1
139 0 156 10 168 9 10 9 14 0 14 -8 0 -11 54 -11 180 l0 180 -101 0 -100 0 6
-352 c9 -578 12 -746 16 -881 2 -70 2 -127 -1 -127 -3 0 -4 -83 -3 -184 1
-102 -1 -230 -5 -286 -6 -82 -5 -100 6 -95 10 4 12 -1 7 -18 -10 -32 -28 -48
-60 -52 -17 -1 -37 -14 -48 -30 -11 -15 -25 -32 -31 -37 -7 -7 -10 -44 -8 -98
3 -85 3 -88 -17 -83 -42 11 -21 -24 24 -41 25 -10 45 -22 45 -27 0 -5 6 -9 13
-9 21 0 45 -32 46 -60 0 -14 4 -140 8 -280 10 -292 10 -875 -1 -1725 -9 -671
-12 -767 -22 -814 -4 -20 -3 -32 3 -28 10 6 8 -182 -4 -292 -5 -51 -3 -62 7
-56 9 5 11 4 6 -4 -4 -7 -8 -43 -7 -82 0 -44 -4 -69 -10 -69 -8 0 -8 -4 0 -13
6 -8 9 -16 6 -18 -4 -5 -5 -24 -6 -219 -1 -74 -2 -217 -2 -318 -1 -100 -5
-175 -9 -165 -4 10 -5 2 0 -17 4 -19 6 -69 4 -110 -2 -41 -4 -133 -5 -205 -1
-71 -5 -132 -8 -135 -4 -3 -1 -54 6 -115 10 -83 10 -112 1 -120 -7 -7 -12 -58
-13 -148 0 -76 -4 -154 -7 -172 -5 -27 -3 -34 11 -38 16 -4 16 -5 1 -6 -14 -1
-17 -9 -15 -38 2 -31 -1 -37 -15 -35 -10 2 -18 -1 -18 -6 0 -16 -93 -22 -332
-24 -154 -1 -228 -5 -228 -12 0 -7 -3 -6 -8 1 -7 11 -241 18 -370 10 -23 -1
-44 3 -45 8 -2 6 -11 4 -21 -4 -12 -10 -20 -11 -24 -4 -7 11 -190 11 -252 -1
-23 -4 -28 -3 -15 3 12 5 -60 8 -177 7 -129 0 -198 -4 -198 -11 0 -6 -18 -9
-45 -7 -25 2 -45 8 -45 13 0 12 -78 9 -102 -3 -10 -5 -19 -4 -23 2 -7 11 -118
14 -128 4 -3 -3 -1 -18 5 -33 9 -24 22 -159 14 -150 -2 2 -20 74 -41 159 -63
261 -61 257 -103 285 -20 14 -42 25 -48 25 -6 0 -18 8 -25 17 -8 9 -46 40 -85
69 -69 51 -111 75 -216 126 -26 13 -48 30 -48 38 0 25 46 192 64 235 16 37 18
38 31 22 16 -22 71 -24 885 -32 327 -3 597 -6 600 -6 55 -3 364 3 387 7 51 10
58 38 57 225 -2 482 -7 748 -14 784 -12 55 -18 178 -8 162 5 -6 7 112 6 264
-2 153 -5 276 -8 274 -7 -4 -6 149 1 155 9 7 16 140 8 140 -4 0 -5 15 -3 33 5
28 1 36 -39 69 -25 21 -53 52 -63 70 -47 89 -54 106 -60 147 -5 32 -4 42 4 37
7 -4 12 -15 12 -25 0 -20 20 -74 51 -137 26 -53 67 -97 84 -90 8 3 16 0 19 -7
3 -7 3 3 0 21 -3 18 -7 201 -8 405 -2 295 -6 389 -19 456 -9 47 -15 87 -13 89
6 6 64 -187 79 -262 21 -107 33 -94 42 42 6 117 -6 287 -25 338 -5 13 -6 26
-1 28 5 3 70 1 146 -4 76 -6 146 -8 156 -5 9 3 36 -2 60 -10 71 -26 79 -28 79
-17 0 6 -25 22 -55 36 -118 54 -243 157 -308 254 -64 96 -77 126 -145 327
-100 297 -130 399 -137 466 -16 160 -95 435 -155 537 -21 35 -16 39 27 18 61
-30 103 -38 214 -43 104 -5 129 -2 230 22 63 16 120 33 127 38 21 17 -6 27
-40 15 -66 -23 -239 16 -378 87 -78 40 -224 166 -331 287 -57 64 -71 88 -89
148 -31 103 -139 311 -215 415 -124 168 -298 342 -461 463 -35 25 -61 48 -59
51 3 2 33 5 67 7 79 4 193 33 273 70 51 24 230 138 239 153 4 6 1 11 -8 11 -8
0 -17 -4 -21 -10 -3 -5 -46 -34 -95 -65 l-90 -55 -143 0 c-244 0 -416 48 -697
193 -74 38 -153 80 -175 92 -97 55 -116 65 -196 100 -157 69 -118 65 -678 65
l-511 -1 -6 -25 c-8 -30 -11 -30 -56 1 l-37 25 -490 0 c-460 0 -494 -1 -543
-19 -210 -77 -354 -104 -537 -99 -136 3 -150 5 -209 32 -34 16 -66 26 -70 22
-11 -12 35 -44 129 -91 94 -48 185 -75 247 -75 23 0 44 -4 47 -10 3 -5 -32
-28 -77 -51 -202 -101 -329 -205 -553 -454 -247 -274 -394 -396 -610 -503
-102 -50 -237 -84 -250 -62 -3 5 -6 302 -5 660 l0 650 -179 0 -180 0 -1 -32z
m1660 -551 c-8 -8 -41 -38 -73 -67 -31 -29 -60 -51 -63 -48 -9 10 125 128 146
128 2 0 -2 -6 -10 -13z m3635 -127 c44 -44 84 -80 89 -80 23 0 163 -120 291
-252 155 -158 281 -300 395 -447 41 -53 98 -121 127 -151 28 -30 50 -56 48
-59 -6 -5 -85 59 -85 68 0 11 -163 214 -249 311 -183 206 -348 375 -436 445
-27 22 -52 43 -55 46 -3 3 -18 13 -35 22 -33 17 -195 177 -180 177 6 0 46 -36
90 -80z m-3861 -72 c-11 -11 -66 -60 -124 -108 -58 -49 -118 -103 -134 -122
-15 -18 -67 -74 -115 -123 -165 -173 -276 -296 -276 -309 0 -6 -9 -23 -20 -37
-28 -36 -131 -147 -119 -129 5 8 23 35 39 60 37 56 33 51 99 133 71 88 444
485 487 517 67 51 169 143 170 154 0 6 3 5 6 -2 3 -7 -3 -22 -13 -34z m4011
-108 c10 -11 16 -20 13 -20 -3 0 -13 9 -23 20 -10 11 -16 20 -13 20 3 0 13 -9
23 -20z m-3700 -48 c-28 -26 -90 -93 -139 -150 -49 -56 -91 -100 -94 -97 -13
13 246 295 271 295 6 0 -11 -21 -38 -48z m-76 12 c2 -2 -16 -4 -40 -4 -31 0
-40 3 -29 10 13 8 57 4 69 -6z m3821 -29 c14 -19 14 -19 -2 -6 -10 7 -18 18
-18 24 0 6 1 8 3 6 1 -2 9 -13 17 -24z m-3805 -144 c-43 -55 -65 -73 -65 -55
0 17 100 128 107 120 3 -3 -16 -32 -42 -65z m3729 28 c-3 -5 -16 -9 -30 -9
-33 0 -24 15 10 16 14 1 23 -2 20 -7z m-4259 -49 c-3 -5 -12 -10 -18 -10 -7 0
-6 4 3 10 19 12 23 12 15 0z m4090 -60 c28 -29 45 -51 39 -49 -17 6 -124 102
-124 112 0 15 35 -11 85 -63z m64 4 c36 -36 61 -64 55 -62 -19 6 -147 128
-134 128 7 0 42 -30 79 -66z m-3250 -21 c-20 -21 -45 -49 -57 -62 -12 -14 -25
-22 -28 -18 -8 7 95 117 109 117 6 0 -5 -17 -24 -37z m165 2 c-4 -8 -8 -15
-10 -15 -2 0 -4 7 -4 15 0 8 4 15 10 15 5 0 7 -7 4 -15z m-1179 -13 c-6 -4
-26 -21 -45 -37 l-35 -30 34 38 c19 20 39 37 45 37 6 0 6 -3 1 -8z m1078 -48
c-26 -27 -40 -40 -33 -29 20 29 73 85 77 82 2 -2 -18 -26 -44 -53z m3617 0 c0
-2 -9 0 -20 6 -11 6 -20 13 -20 16 0 2 9 0 20 -6 11 -6 20 -13 20 -16z m25
-24 c3 -5 2 -10 -4 -10 -5 0 -13 5 -16 10 -3 6 -2 10 4 10 5 0 13 -4 16 -10z
m-868 -37 c41 -54 65 -94 60 -99 -3 -3 -28 27 -56 65 -52 73 -56 101 -4 34z
m919 -14 c3 -6 -5 -3 -20 6 -14 10 -26 19 -26 22 0 7 39 -17 46 -28z m-4886
18 c0 -2 -15 -16 -32 -33 l-33 -29 29 33 c28 30 36 37 36 29z m-140 -46 c0 -6
-4 -12 -9 -15 -5 -3 -40 -50 -79 -104 -65 -91 -110 -173 -278 -516 -38 -76
-70 -134 -72 -128 -2 6 4 27 13 48 14 35 13 74 -3 74 -4 0 -7 141 -7 314 l0
314 165 -5 c133 -4 173 -2 205 10 47 18 65 20 65 8z m1411 -72 c-16 -41 -31
-82 -35 -91 -3 -10 -10 -18 -15 -18 -5 0 2 28 16 63 14 34 27 71 30 82 7 23
24 47 30 42 2 -2 -10 -37 -26 -78z m3679 39 c0 -13 -5 -9 -31 19 l-24 26 27
-19 c15 -10 28 -22 28 -26z m-2715 -15 c-24 -40 -63 -88 -68 -83 -7 8 62 110
74 110 6 0 3 -12 -6 -27z m-875 -11 c0 -5 -9 -27 -20 -50 -11 -22 -20 -50 -20
-61 0 -11 -5 -23 -11 -27 -12 -7 -10 5 18 94 10 28 21 52 25 52 4 0 8 -4 8 -8z
m3735 -102 c3 -5 1 -10 -4 -10 -6 0 -11 5 -11 10 0 6 2 10 4 10 3 0 8 -4 11
-10z m-2969 -28 c-18 -16 -18 -16 -6 6 6 13 14 21 18 18 3 -4 -2 -14 -12 -24z
m135 -83 c-6 -27 -11 -68 -11 -90 0 -24 -4 -38 -10 -34 -11 7 -4 109 13 170
15 56 21 18 8 -46z m1194 0 c20 -39 34 -76 32 -82 -2 -7 -23 25 -45 71 -22 45
-36 82 -31 82 5 0 25 -32 44 -71z m-84 34 c23 -46 23 -49 1 -30 -20 19 -36 57
-23 57 4 0 14 -12 22 -27z m1829 -18 c13 -14 21 -25 18 -25 -2 0 -15 11 -28
25 -13 14 -21 25 -18 25 2 0 15 -11 28 -25z m-2824 -105 c-1 -38 -4 -70 -7
-70 -9 0 -16 63 -11 105 7 61 19 38 18 -35z m-1423 -70 c-27 -89 -51 -132 -38
-70 4 19 10 40 14 45 4 6 14 30 21 55 15 51 21 63 26 58 1 -2 -9 -42 -23 -88z
m1046 -280 c-5 -36 -14 -107 -19 -159 -10 -92 -19 -128 -21 -80 -1 34 2 100 7
129 2 14 9 62 16 108 6 45 15 79 19 75 5 -5 4 -37 -2 -73z m-2729 -314 c0 -8
-24 -34 -52 -58 l-53 -43 50 57 c28 31 51 57 53 57 1 1 2 -5 2 -13z m5 -134
c-3 -3 -13 -7 -23 -8 -9 -1 -26 -5 -37 -8 -11 -4 -4 2 15 12 31 18 62 20 45 4z
m3724 -1227 c13 -38 31 -88 40 -110 34 -86 162 -333 200 -390 29 -42 37 -61
28 -66 -17 -10 -220 -38 -229 -33 -5 3 -8 12 -8 20 0 16 26 19 35 4 7 -12 25
-4 25 11 0 5 -6 9 -14 9 -8 0 -17 6 -20 13 -5 10 -7 10 -12 0 -3 -7 -14 -13
-25 -13 -10 0 -19 -7 -19 -15 0 -8 5 -15 10 -15 22 0 8 -26 -18 -36 -50 -19
-56 4 -53 221 1 104 4 192 6 195 2 4 5 67 6 141 2 179 8 187 48 64z m556 -237
c55 -111 110 -217 123 -236 29 -44 20 -54 -49 -50 l-54 3 -38 115 c-57 174
-105 370 -90 370 4 0 53 -91 108 -202z m-2030 77 c10 -27 37 -89 61 -136 34
-69 101 -286 91 -295 -1 -1 -24 2 -52 8 -27 5 -86 14 -130 21 -93 14 -88 -5
-50 182 26 130 41 228 44 275 1 22 16 0 36 -55z m-359 -57 c-4 -21 -15 -99
-34 -248 -6 -48 -10 -55 -31 -58 -32 -5 -44 10 -32 39 8 20 22 69 78 272 7 25
24 21 19 -5z m4440 -378 c-13 -50 -15 -52 -15 -20 -1 19 4 53 11 75 18 61 22
11 4 -55z m-1884 33 c20 -24 198 -300 205 -321 5 -12 2 -14 -11 -9 -10 4 -48
0 -86 -9 -38 -8 -75 -12 -81 -8 -20 12 -113 218 -101 222 16 5 15 22 -2 22
-11 0 -37 50 -48 95 -2 6 17 13 42 16 25 3 50 7 56 7 6 1 18 -6 26 -15z
m-2608 -12 c3 -5 2 -22 -3 -37 -5 -16 -24 -92 -42 -169 -18 -77 -36 -146 -42
-152 -11 -15 -87 -18 -87 -4 0 5 22 78 49 162 27 85 52 166 55 182 5 22 12 27
36 27 16 0 31 -4 34 -9z m376 -52 c25 -5 79 -14 120 -20 85 -12 96 -18 109
-67 12 -42 6 -55 -20 -47 -13 4 -19 2 -19 -9 0 -10 9 -16 24 -16 13 0 28 -6
34 -13 11 -13 62 -153 62 -170 0 -5 -12 -6 -27 -3 -16 4 -131 8 -257 10 -125
3 -230 6 -232 8 -3 4 7 32 64 178 l18 45 63 -2 c35 -1 66 -5 69 -8 3 -3 -2
-13 -11 -23 -10 -10 -17 -24 -17 -31 0 -7 -5 -9 -12 -5 -6 4 -8 3 -5 -3 8 -13
-14 -76 -30 -86 -18 -11 -16 -47 2 -47 8 0 15 6 15 14 0 30 74 176 93 182 37
12 72 -14 86 -63 18 -59 46 -89 67 -72 12 10 17 8 28 -6 9 -13 15 -15 20 -6 4
6 1 14 -7 17 -9 3 -13 13 -9 27 3 12 1 19 -3 15 -5 -4 -15 -2 -24 4 -13 10
-14 10 -3 -2 16 -19 15 -30 -3 -30 -19 0 -47 44 -47 75 0 14 -5 22 -10 19 -6
-4 -8 2 -4 14 5 15 2 22 -13 27 -12 3 -25 4 -31 0 -5 -3 -18 -2 -28 4 -10 5
-49 11 -87 12 -88 3 -97 6 -89 33 12 42 35 68 52 60 9 -3 37 -11 62 -15z
m1831 1 c31 -17 24 -40 -13 -40 -18 0 -53 -7 -78 -14 -84 -26 3 -34 110 -10
21 4 43 -12 148 -112 89 -85 120 -120 112 -128 -7 -7 -103 -13 -268 -16 -141
-3 -263 -8 -271 -10 -11 -4 -24 25 -52 110 -21 63 -38 120 -38 127 -1 12 56
36 69 28 4 -2 16 2 26 10 10 8 27 15 36 15 24 0 80 -62 68 -74 -15 -15 -12
-26 7 -26 9 0 41 -24 72 -52 76 -71 112 -98 131 -98 17 1 50 23 50 35 0 5 -8
1 -19 -9 -17 -16 -21 -15 -69 18 -56 38 -112 94 -112 112 0 7 -8 10 -22 6 -15
-3 -19 -2 -14 7 4 6 -6 28 -24 50 l-30 39 57 17 c32 9 63 18 68 20 19 7 36 5
56 -5z m1599 -232 c28 -46 58 -146 75 -253 14 -85 14 -100 -4 -196 -31 -173
-72 -244 -238 -419 -76 -80 -169 -180 -206 -222 -79 -90 -146 -128 -225 -128
-67 0 -115 17 -107 39 4 9 16 39 26 68 25 64 61 98 213 193 65 41 141 95 167
118 64 57 154 193 175 262 9 30 23 72 30 93 16 44 18 144 4 182 -13 34 38 295
58 295 7 0 21 -15 32 -32z m589 -28 c17 -22 57 -57 89 -79 56 -38 102 -81 87
-81 -12 0 -172 128 -195 157 l-21 26 -44 -44 c-25 -24 -55 -63 -67 -87 -28
-55 -41 -64 -25 -18 13 38 115 166 133 166 6 0 25 -18 43 -40z m-5449 -59 c0
-10 13 -72 30 -136 29 -116 29 -117 10 -143 -55 -77 -43 -219 27 -312 18 -24
31 -50 28 -58 -13 -33 -16 -62 -8 -62 5 0 14 14 20 30 l11 30 64 -43 c35 -24
97 -62 138 -83 104 -54 260 -210 285 -285 10 -28 13 -54 9 -59 -18 -16 -79
-30 -128 -30 -86 1 -124 26 -293 197 -242 247 -303 347 -311 511 -2 51 1 121
7 155 11 56 60 228 82 285 10 27 29 29 29 3z m3110 -26 c0 -2 -23 -16 -50 -30
-44 -22 -51 -23 -56 -10 -9 22 0 28 36 27 16 0 32 4 35 9 6 9 35 13 35 4z
m1560 -10 c0 -8 -7 -15 -15 -15 -16 0 -20 12 -8 23 11 12 23 8 23 -8z m-725
-27 c30 -34 49 -73 83 -168 42 -118 44 -133 27 -235 -9 -49 -17 -107 -19 -127
-5 -45 -33 -124 -58 -160 -10 -15 -14 -29 -10 -32 15 -9 166 158 200 222 29
54 52 78 52 54 0 -41 -25 -191 -41 -245 -11 -38 -18 -71 -15 -75 3 -3 21 12
40 34 19 21 37 36 40 33 4 -3 -4 -30 -18 -60 -13 -30 -27 -70 -31 -89 -4 -19
-11 -39 -15 -45 -4 -5 -31 -84 -60 -175 -65 -204 -150 -424 -197 -510 -83
-149 -265 -348 -483 -526 -69 -56 -132 -109 -139 -118 -19 -22 -45 -20 -78 7
-15 13 -57 44 -93 69 -36 25 -116 92 -178 149 -62 57 -138 125 -169 152 l-57
47 -141 0 c-119 0 -235 -6 -460 -25 -22 -2 -57 -13 -77 -25 -21 -12 -126 -115
-234 -228 -108 -114 -200 -208 -205 -210 -8 -3 -29 11 -169 113 -41 30 -93 67
-115 82 -211 146 -298 227 -388 363 -59 88 -150 288 -206 447 -51 150 -129
360 -144 390 -7 15 -12 35 -10 44 2 10 -6 38 -18 63 -12 26 -19 49 -16 52 4 5
-13 75 -38 153 -12 40 11 21 52 -42 41 -62 79 -104 87 -96 3 3 -8 31 -24 64
-16 33 -30 64 -30 69 0 6 23 -16 51 -47 28 -31 74 -73 103 -92 29 -19 65 -48
80 -66 15 -17 30 -29 32 -26 2 2 -14 35 -36 73 -22 38 -47 91 -55 117 l-14 49
82 81 c46 45 110 116 142 157 78 98 96 115 104 101 4 -6 32 -17 62 -25 75 -19
374 -13 421 9 l33 15 -38 -6 c-36 -5 -37 -4 -31 20 5 22 3 26 -15 26 -45 0
-34 55 12 62 19 3 22 9 22 47 0 41 2 46 35 59 28 11 42 12 75 2 96 -28 100
-32 114 -104 18 -92 -8 -327 -45 -399 -28 -54 -4 -41 77 39 76 76 131 154 180
257 13 26 26 47 29 47 3 0 12 -42 19 -92 6 -51 15 -104 19 -118 3 -14 6 -92 6
-175 -1 -137 -3 -157 -29 -230 -15 -44 -32 -85 -37 -92 -6 -7 -8 -17 -6 -23 2
-7 62 44 133 113 111 106 139 139 192 228 84 143 92 161 122 264 14 50 30 93
35 95 5 3 16 -15 24 -40 8 -24 44 -86 79 -136 66 -96 222 -254 251 -254 12 0
10 6 -11 28 -27 28 -117 208 -122 245 -2 12 -8 36 -14 52 -31 87 -51 159 -60
214 -5 34 -13 66 -16 71 -3 6 -2 10 3 10 5 0 29 -28 53 -62 58 -85 220 -246
294 -294 33 -21 62 -42 63 -46 2 -5 8 -5 13 -2 6 3 33 -3 62 -15 41 -16 191
-61 204 -61 12 0 -2 31 -22 50 -63 60 -209 308 -230 391 -6 23 -3 28 26 38 17
6 52 11 75 11 43 0 44 -1 44 -32 0 -18 11 -57 25 -86 14 -30 25 -56 25 -58 0
-2 -12 -4 -26 -4 -22 0 -25 -2 -14 -15 7 -8 15 -13 19 -11 3 2 42 -2 86 -10
44 -7 89 -13 100 -13 17 -1 18 1 5 10 -12 9 -11 9 5 3 42 -17 238 -5 259 16 5
5 19 10 31 11 11 0 14 3 8 6 -7 2 -13 13 -13 23 0 10 -12 23 -30 30 -17 7 -33
17 -36 22 -11 17 18 38 52 38 27 0 34 4 34 19 0 39 22 32 71 -21 72 -78 61
-36 -13 51 -16 18 -27 35 -24 38 9 9 69 19 126 22 47 2 59 -2 75 -21z m-3001
-27 c6 -9 -22 -84 -49 -132 -8 -15 -15 -38 -14 -50 1 -47 -101 -299 -122 -299
-6 0 -19 126 -19 194 0 35 21 96 88 259 14 35 17 37 63 37 26 0 50 -4 53 -9z
m2482 -5 c8 -8 14 -17 14 -21 0 -10 -28 -35 -39 -35 -18 0 -30 32 -18 52 14
22 24 23 43 4z m1230 -103 c-4 -60 -13 -139 -21 -178 -14 -74 -5 -109 16 -59
6 16 29 66 50 111 22 46 39 90 39 98 0 10 5 13 11 9 17 -10 4 -108 -26 -199
-46 -142 -142 -263 -279 -352 -56 -36 -127 -82 -158 -103 -32 -22 -58 -36 -58
-31 0 4 16 54 36 112 33 95 100 228 116 229 11 0 28 -62 28 -106 0 -32 4 -44
15 -44 17 0 30 43 45 149 8 54 24 101 54 161 49 96 78 169 101 253 26 92 39
72 31 -50z m-5037 -57 c99 -148 145 -258 144 -347 0 -78 -19 -163 -39 -180
-18 -15 -18 -14 6 51 45 122 11 259 -108 434 -75 112 -82 110 -62 -17 6 -39
14 -87 16 -106 3 -19 7 -38 10 -42 3 -5 1 -9 -5 -9 -11 0 -16 15 -28 75 -4 22
-8 42 -8 45 -3 13 -15 122 -19 180 -4 53 -3 62 7 46 7 -10 45 -68 86 -130z
m1711 118 c11 -12 10 -18 -6 -35 -20 -20 -20 -20 -39 0 -14 17 -15 23 -5 36
16 19 34 19 50 -1z m3913 -11 c-9 -24 -44 -83 -49 -83 -2 0 7 23 21 50 25 49
41 68 28 33z m-1691 -55 c8 -13 18 -33 22 -45 7 -20 4 -23 -22 -23 -28 0 -30
3 -34 45 -4 50 10 59 34 23z m-2129 -20 c13 -18 27 -45 31 -60 6 -27 5 -28
-34 -28 -22 0 -40 5 -40 10 0 6 5 10 11 10 8 0 10 16 6 50 -3 28 -4 50 -2 50
2 0 15 -15 28 -32z m-143 -17 c0 -22 5 -43 10 -46 22 -14 8 -26 -27 -23 -34 3
-38 6 -41 35 -2 22 3 37 19 52 32 30 39 26 39 -18z m2102 0 l16 -39 -37 5
c-20 3 -37 7 -39 8 -6 5 28 65 37 65 4 0 15 -18 23 -39z m1801 -16 c-3 -9 -8
-14 -10 -11 -3 3 -2 9 2 15 9 16 15 13 8 -4z m-5739 -54 c-6 -6 -11 1 -18 29
l-7 25 15 -25 c8 -14 12 -27 10 -29z m1670 34 c3 -9 0 -15 -8 -15 -7 0 -19 7
-26 15 -10 12 -9 15 8 15 11 0 22 -7 26 -15z m-2704 -20 c0 -8 -8 -15 -18 -15
-10 0 -19 7 -19 15 0 8 9 15 19 15 10 0 18 -7 18 -15z m500 -15 c0 -5 -2 -10
-4 -10 -3 0 -8 5 -11 10 -3 6 -1 10 4 10 6 0 11 -4 11 -10z m1163 -42 c4 -29
9 -96 12 -148 6 -87 5 -93 -9 -76 -9 11 -16 29 -16 41 0 12 -5 26 -11 32 -26
26 -16 203 11 203 4 0 10 -24 13 -52z m5068 29 c-10 -9 -11 -8 -5 6 3 10 9 15
12 12 3 -3 0 -11 -7 -18z m-5615 -132 c3 -14 12 -25 20 -25 8 0 14 -4 14 -10
0 -15 -15 -12 -32 8 -20 23 -30 52 -18 52 5 0 12 -11 16 -25z m692 -43 c18
-31 100 -136 182 -232 83 -96 150 -179 150 -183 0 -5 -33 21 -72 57 -47 42
-103 81 -156 107 -96 47 -171 95 -179 115 -3 8 2 36 11 63 9 28 16 68 16 90 0
23 3 41 8 41 4 0 22 -26 40 -58z m4872 -12 c0 -5 -5 -10 -11 -10 -5 0 -7 5 -4
10 3 6 8 10 11 10 2 0 4 -4 4 -10z m-138 -182 c39 -57 88 -119 127 -162 l36
-38 -32 16 c-40 20 -133 142 -163 214 -12 28 -26 52 -31 52 -5 0 -6 7 -2 16 4
11 10 5 23 -23 9 -21 28 -54 42 -75z m125 60 c-3 -7 -5 -2 -5 12 0 14 2 19 5
13 2 -7 2 -19 0 -25z m-5177 3 c0 -29 122 -184 236 -301 128 -130 169 -183
157 -203 -3 -5 -13 5 -23 21 -21 34 -52 43 -112 32 -55 -10 -139 -4 -148 11
-6 8 -9 8 -14 0 -4 -6 -12 -11 -17 -11 -6 0 -7 5 -3 12 5 7 3 8 -7 3 -21 -14
-68 -7 -89 13 -14 13 -19 38 -24 120 -3 56 -2 102 2 102 4 0 5 21 3 46 -2 32
1 49 10 55 11 7 11 9 -2 9 -9 0 -37 -23 -64 -51 -59 -62 -72 -57 -16 7 23 26
54 69 68 96 24 44 43 61 43 39z m5195 -84 c4 -28 13 -67 21 -86 8 -18 14 -37
14 -42 0 -16 -18 -10 -25 9 -13 32 -34 127 -35 155 0 46 18 21 25 -36z m-301
-12 c-32 -36 -60 -63 -63 -60 -4 5 108 125 117 125 2 0 -23 -29 -54 -65z m836
26 c0 -5 -7 -11 -14 -14 -10 -4 -13 -1 -9 9 6 15 23 19 23 5z m-940 -136 c-19
-19 -38 -35 -44 -35 -6 0 7 18 29 40 21 22 41 37 44 35 2 -3 -11 -21 -29 -40z
m-76 -80 c-14 -19 -31 -35 -37 -35 -6 0 4 16 23 35 19 19 36 35 37 35 2 0 -8
-16 -23 -35z m1006 -32 c0 -10 -4 -14 -8 -8 -4 6 -11 13 -16 18 -5 4 -2 7 7 7
10 0 17 -8 17 -17z m-1050 -17 c0 -2 -8 -10 -17 -17 -16 -13 -17 -12 -4 4 13
16 21 21 21 13z m1016 -56 c8 0 14 -4 14 -10 0 -13 -6 -13 -30 0 -13 7 -17 16
-12 28 6 16 7 16 10 0 2 -10 10 -18 18 -18z m-53 -10 c3 -11 1 -18 -4 -14 -5
3 -9 12 -9 20 0 20 7 17 13 -6z m-1013 7 c0 -2 -19 -21 -42 -42 l-42 -40 34
42 c30 35 50 52 50 40z m954 -73 c9 -3 16 -11 16 -17 0 -8 -3 -8 -11 0 -6 6
-18 9 -25 6 -8 -3 -14 0 -14 6 0 12 11 14 34 5z m-24 -38 c0 -2 -9 -2 -20 1
-11 3 -20 9 -20 15 0 5 9 4 20 -2 11 -6 20 -12 20 -14z m75 14 c3 -5 -1 -10
-10 -10 -9 0 -13 5 -10 10 3 6 8 10 10 10 2 0 7 -4 10 -10z m-5216 -77 c5 -21
12 -71 16 -110 7 -69 15 -87 30 -63 4 6 13 50 21 97 7 48 19 91 24 97 15 15
35 -13 56 -78 24 -77 104 -216 207 -361 147 -207 162 -251 216 -625 1 -2 6 1
11 6 6 6 10 74 11 157 1 81 4 147 8 147 3 0 21 -31 40 -69 18 -38 50 -90 71
-117 114 -146 192 -278 173 -294 -4 -4 -35 -12 -68 -19 -33 -7 -96 -21 -140
-31 -44 -10 -93 -21 -110 -25 -128 -26 -202 -56 -241 -99 -18 -20 -40 -36 -48
-36 -20 0 -50 -40 -70 -97 -10 -26 -24 -61 -31 -78 -7 -16 -20 -54 -30 -82 -9
-29 -21 -55 -26 -58 -13 -9 -11 69 2 82 13 13 3 36 -12 28 -5 -4 -9 1 -9 9 0
9 -8 16 -17 16 -16 0 -16 2 -3 11 11 8 12 12 3 16 -7 2 -13 10 -13 18 0 20
-40 105 -49 105 -5 0 -11 14 -15 32 -8 43 -54 138 -66 138 -6 0 -10 6 -10 13
0 7 -5 18 -11 24 -7 7 -13 31 -15 54 -3 34 -2 41 8 31 9 -9 17 -3 36 24 23 34
23 36 5 49 -22 18 -30 18 -35 4 -7 -21 -45 1 -76 45 -17 24 -29 46 -25 49 3 4
1 12 -4 19 -17 22 -21 69 -8 95 11 21 11 28 -3 43 -8 11 -19 17 -24 14 -4 -3
-15 2 -24 10 -8 9 -23 16 -32 16 -13 0 -18 10 -20 40 -1 22 2 40 7 40 15 0 23
-18 10 -22 -8 -3 -5 -11 7 -22 18 -18 18 -18 26 9 9 35 5 42 -32 50 -17 4 -36
15 -43 26 -8 10 -17 16 -20 12 -4 -3 -7 1 -7 10 0 11 8 17 23 17 31 0 59 46
37 60 -9 6 -13 22 -11 49 2 32 -1 40 -18 46 -13 4 -27 -1 -40 -14 l-20 -20 20
-6 c19 -6 19 -8 3 -19 -23 -17 -53 7 -49 40 1 13 -2 21 -6 18 -5 -3 -14 -2
-20 2 -8 4 -7 9 2 14 9 6 3 16 -21 38 -18 17 -30 35 -26 40 3 5 -1 12 -9 16
-12 4 -13 11 -5 32 8 19 7 31 -2 41 -9 11 -9 16 3 24 11 7 7 11 -18 21 -18 7
-33 19 -33 28 0 13 -1 13 -10 0 -5 -8 -10 -12 -10 -8 0 3 -2 13 -5 20 -4 11 3
14 29 13 32 -2 34 0 24 18 -8 17 -8 19 6 14 8 -3 18 -2 21 2 2 5 -10 14 -28
21 -17 6 -40 16 -51 22 -12 6 -16 6 -11 -1 12 -21 -4 -11 -44 28 -23 22 -41
43 -41 48 0 21 46 33 134 35 52 1 92 6 90 10 -3 4 6 4 19 -1 26 -10 72 -8 101
4 14 6 17 5 12 -3 -8 -13 6 -16 18 -4 4 4 40 8 79 8 171 3 177 3 177 19 0 29
19 14 29 -22z m4032 -16 c-10 -9 -11 -8 -5 6 3 10 9 15 12 12 3 -3 0 -11 -7
-18z m-31 -66 c-28 -56 -35 -52 -8 4 12 24 23 43 26 41 2 -2 -6 -22 -18 -45z
m-80 -150 c-18 -36 -40 -61 -40 -46 0 7 51 85 57 85 2 0 -6 -18 -17 -39z
m-249 -307 c4 -49 10 -126 14 -171 l8 -82 -76 6 c-55 4 -81 2 -92 -7 -26 -21
-25 -8 2 55 13 33 35 95 48 138 27 88 64 159 79 154 6 -2 14 -44 17 -93z m143
80 c3 -8 10 -13 16 -9 8 5 498 6 658 1 24 0 46 2 49 7 2 4 13 7 24 7 11 0 18
-3 16 -7 -3 -5 78 -8 179 -8 101 0 184 2 184 5 0 7 194 3 218 -4 23 -8 47 -50
37 -66 -4 -7 -7 -60 -7 -119 0 -62 -5 -112 -11 -119 -8 -10 -43 -13 -141 -12
-72 2 -282 2 -466 1 -184 -1 -440 -1 -569 0 -155 0 -237 -3 -244 -10 -20 -20
-27 -11 -27 33 0 54 37 272 51 298 12 22 25 23 33 2z m-4037 -460 c-3 -3 -12
-4 -19 -1 -8 3 -5 6 6 6 11 1 17 -2 13 -5z m1390 -179 c51 -36 95 -70 98 -76
7 -11 -180 -207 -189 -198 -3 3 -13 75 -21 160 -9 85 -20 169 -25 187 l-9 33
27 -21 c15 -11 68 -49 119 -85z m1983 23 c0 -13 -5 -50 -10 -84 -6 -34 -14
-112 -20 -175 -25 -292 -40 -413 -52 -425 -19 -18 -209 -46 -225 -32 -20 16
-16 27 23 72 97 112 133 160 172 228 41 73 64 148 45 148 -5 0 -9 -9 -10 -20
-3 -32 -129 -267 -139 -258 -2 2 8 38 23 79 21 60 26 94 26 176 1 66 -3 107
-10 114 -9 9 -9 19 2 39 9 17 12 41 9 62 -6 34 -6 35 62 66 84 38 104 40 104
10z m-741 -38 c85 -61 126 -87 203 -127 79 -42 85 -48 61 -62 -10 -5 -49 -32
-87 -60 -38 -28 -75 -51 -82 -51 -7 0 -38 29 -70 65 -31 35 -74 76 -96 91 -36
25 -43 26 -112 21 -40 -4 -86 -12 -102 -18 -16 -7 -35 -11 -42 -10 -19 3 -250
-67 -299 -91 -40 -20 -36 -1 13 59 26 32 67 88 90 124 l43 66 178 5 c98 3 189
10 203 16 37 16 37 15 99 -28z m875 -98 c2 -4 7 -26 11 -49 3 -23 12 -72 20
-110 8 -37 15 -80 15 -95 0 -18 5 -28 15 -28 12 0 15 18 15 99 0 55 5 112 10
126 l10 27 88 -48 c175 -95 242 -153 242 -211 0 -38 -266 -228 -393 -282 -150
-63 -426 -103 -457 -66 -15 18 -14 18 105 39 203 35 283 60 428 133 83 41 214
121 242 146 18 17 -92 122 -172 165 -66 35 -73 37 -73 22 0 -5 9 -10 19 -10
11 0 21 -3 23 -7 2 -5 19 -16 39 -26 40 -21 139 -107 139 -123 0 -26 -281
-182 -382 -211 -78 -22 -118 -27 -118 -14 0 7 5 55 11 109 8 73 19 116 45 173
19 42 46 112 59 155 14 42 28 81 31 86 6 10 21 10 28 0z m-2366 -44 c7 -7 12
-19 12 -28 0 -8 13 -47 30 -85 16 -39 30 -79 30 -90 0 -11 -25 -48 -55 -83
-30 -35 -68 -83 -85 -108 -30 -43 -32 -44 -58 -30 -15 7 -49 24 -77 37 -74 35
-209 123 -260 170 -64 59 -82 44 -19 -17 53 -51 261 -181 328 -205 45 -16 53
-31 38 -65 -16 -33 -46 -31 -135 10 -151 69 -305 176 -337 236 -11 21 14 113
37 131 22 19 76 38 168 61 44 10 96 23 115 28 46 12 221 47 241 49 8 0 20 -4
27 -11z m2034 -117 c-1 -80 -5 -100 -41 -192 -37 -94 -78 -169 -91 -169 -3 0
-32 32 -65 72 -33 40 -80 91 -104 114 -27 25 -42 47 -38 55 3 8 32 52 65 99
l59 85 70 -3 c63 -3 73 -1 99 21 17 15 33 22 38 17 5 -5 8 -49 8 -99z m-2852
-281 c0 -5 -4 -10 -10 -10 -5 0 -10 5 -10 10 0 6 5 10 10 10 6 0 10 -4 10 -10z
m-16 -215 c-16 -44 -34 -59 -34 -30 0 8 4 23 9 33 5 9 15 31 22 47 20 48 24 3
3 -50z m3873 -97 c-3 -7 -5 -2 -5 12 0 14 2 19 5 13 2 -7 2 -19 0 -25z m53
-124 c0 -2 -9 -4 -20 -4 -11 0 -20 4 -20 9 0 5 9 7 20 4 11 -3 20 -7 20 -9z
m82 -20 c41 -16 110 -46 153 -67 11 -5 17 -6 12 -2 -34 37 222 39 306 3 l48
-21 32 24 c32 23 36 24 292 26 143 1 262 2 265 3 3 0 136 0 297 0 280 -1 384
-9 428 -33 11 -6 23 -11 26 -12 3 0 13 -8 23 -18 16 -15 18 -34 16 -140 -2
-67 -3 -151 -3 -186 -1 -37 -4 -55 -8 -45 -7 16 -8 17 -8 2 -1 -9 4 -20 10
-24 8 -4 10 -32 7 -81 -3 -42 -1 -69 3 -61 6 9 9 7 9 -9 0 -12 -5 -25 -11 -29
-7 -4 -8 -9 0 -17 6 -6 7 -16 1 -28 -6 -11 -6 -20 -1 -23 5 -4 8 -18 6 -32 -2
-20 4 -28 24 -36 14 -5 37 -14 50 -19 13 -5 21 -12 18 -16 -6 -6 -72 14 -332
98 -82 26 -188 60 -235 75 -81 26 -154 54 -490 192 -152 62 -486 218 -605 282
-38 20 -115 61 -170 91 -235 125 -254 138 -163 103z m-4098 -29 c-4 -8 -11
-15 -16 -15 -6 0 -5 6 2 15 7 8 14 15 16 15 2 0 1 -7 -2 -15z m-79 -35 c-3 -5
-11 -10 -16 -10 -6 0 -7 5 -4 10 3 6 11 10 16 10 6 0 7 -4 4 -10z m-185 -54
c0 -2 -7 -7 -16 -10 -8 -3 -12 -2 -9 4 6 10 25 14 25 6z m-45 -26 c-3 -5 -12
-10 -18 -10 -7 0 -6 4 3 10 19 12 23 12 15 0z m3358 -4 c22 -17 12 -25 -31
-24 -18 1 -41 -7 -52 -17 -17 -16 -20 -16 -20 -2 0 19 46 57 69 57 9 0 24 -7
34 -14z m41 -41 c3 -9 0 -15 -9 -15 -8 0 -15 7 -15 15 0 8 4 15 9 15 5 0 11
-7 15 -15z m-59 -60 c-4 -39 -2 -71 10 -111 18 -62 15 -84 -12 -84 -16 0 -18
12 -20 103 -1 56 -5 112 -8 125 -4 18 -1 22 16 22 20 0 21 -3 14 -55z m65 0
c0 -20 -22 -65 -32 -65 -12 0 -10 54 4 68 16 16 28 15 28 -3z m-115 -35 c8
-36 -1 -56 -19 -41 -13 11 -10 71 4 71 5 0 11 -13 15 -30z m139 -77 c-8 -83
-13 -105 -24 -98 -6 3 -10 17 -10 31 0 13 -5 33 -11 43 -10 14 -7 24 11 49 13
18 27 32 32 32 4 0 6 -26 2 -57z m-764 -42 c3 -2 -1 -6 -7 -8 -7 -3 -13 -8
-13 -13 0 -13 -75 -124 -161 -237 -59 -78 -79 -114 -89 -155 -6 -29 -16 -64
-21 -78 -9 -25 -20 -80 -39 -199 -18 -112 -87 -296 -142 -378 -44 -65 -329
-286 -342 -264 -3 4 3 27 14 49 11 23 20 47 20 53 0 7 20 76 45 153 24 78 51
168 59 201 36 148 69 261 79 275 7 8 25 28 40 45 48 52 96 162 116 267 10 53
24 104 31 113 7 8 45 40 84 70 39 30 105 86 146 123 l74 69 51 -41 c27 -22 52
-43 55 -45z m625 -18 c0 -28 6 -57 14 -66 9 -12 10 -17 2 -17 -7 0 -9 -5 -5
-12 5 -7 -8 -1 -27 13 -22 17 -42 46 -57 84 -22 55 -23 57 -5 70 15 12 23 11
48 -4 27 -15 30 -22 30 -68z m-101 2 c5 -20 4 -27 -3 -20 -5 6 -13 24 -17 40
-4 20 -3 27 3 20 6 -5 14 -23 17 -40z m176 -65 c0 -5 -4 -10 -9 -10 -6 0 -13
5 -16 10 -3 6 1 10 9 10 9 0 16 -4 16 -10z m-770 -147 c-1 -27 -5 -120 -9
-208 -9 -159 -10 -161 -61 -305 -54 -150 -75 -184 -116 -194 -29 -8 -94 18
-94 37 0 7 7 33 15 58 8 24 26 103 40 174 51 266 65 303 142 403 36 45 69 82
74 82 5 0 9 -21 9 -47z m-164 -757 c-3 -12 -15 -44 -27 -71 l-22 -50 -12 35
c-7 19 -15 51 -19 71 l-6 36 46 1 c42 0 45 -1 40 -22z"/>
<path d="M5871 6165 c0 -22 4 -49 8 -60 16 -40 22 18 7 61 l-15 39 0 -40z"/>
<path d="M5904 6102 c7 -12 -15 -82 -27 -82 -5 0 -7 -7 -3 -15 3 -8 1 -15 -4
-15 -16 0 -11 -17 6 -24 13 -5 15 -1 12 19 -3 14 -1 25 3 25 5 0 9 8 10 18 0
14 2 14 9 -3 5 -11 9 -14 9 -7 1 6 6 12 11 12 6 0 9 -3 8 -7 -3 -10 29 -70 41
-77 5 -3 7 3 4 14 -3 11 -9 20 -14 20 -5 0 -8 3 -7 8 1 4 -6 23 -17 42 -10 19
-20 40 -20 45 -1 6 -3 16 -3 23 -1 6 -7 12 -13 12 -5 0 -8 -4 -5 -8z"/>
<path d="M5920 5973 c0 -6 -3 -20 -6 -30 -5 -14 -4 -15 4 -4 9 12 13 12 27 -2
9 -10 22 -17 28 -17 6 0 2 7 -10 15 -13 9 -27 23 -32 33 -6 9 -11 12 -11 5z"/>
<path d="M5866 5928 c-10 -39 -7 -48 17 -48 20 1 21 2 5 14 -11 8 -15 20 -11
34 3 12 3 22 0 22 -2 0 -7 -10 -11 -22z"/>
<path d="M5906 5911 c11 -10 22 -16 27 -14 11 7 0 20 -24 26 -21 6 -21 5 -3
-12z"/>
<path d="M6000 5868 c0 -6 3 -8 7 -4 4 4 15 -19 24 -51 10 -32 18 -52 18 -45
1 6 9 12 19 12 10 0 13 3 6 8 -6 4 -19 26 -29 50 -17 39 -45 58 -45 30z"/>
<path d="M5860 5824 c0 -39 15 -39 22 0 3 15 0 27 -8 30 -10 4 -14 -4 -14 -30z"/>
<path d="M5897 5798 c-5 -16 3 -48 12 -48 4 0 6 14 3 30 -5 33 -8 37 -15 18z"/>
<path d="M5920 5780 c0 -5 9 -10 20 -10 11 0 20 5 20 10 0 6 -9 10 -20 10 -11
0 -20 -4 -20 -10z"/>
<path d="M5862 5741 c1 -17 6 -31 13 -31 14 0 13 36 -3 52 -8 8 -11 3 -10 -21z"/>
<path d="M6082 5740 c1 -22 6 -30 20 -30 17 0 18 2 3 30 -9 17 -17 30 -20 30
-2 0 -3 -13 -3 -30z"/>
<path d="M5970 5752 c1 -4 9 -17 19 -29 20 -24 65 -31 77 -11 5 8 0 9 -16 5
-25 -6 -60 7 -60 24 0 6 6 7 13 3 6 -4 8 -3 4 1 -9 11 -37 16 -37 7z"/>
<path d="M6050 5750 c-9 -6 -10 -10 -3 -10 6 0 15 5 18 10 8 12 4 12 -15 0z"/>
<path d="M5860 5676 c0 -9 5 -16 10 -16 6 0 10 4 10 9 0 6 -4 13 -10 16 -5 3
-10 -1 -10 -9z"/>
<path d="M6401 6024 c0 -11 3 -14 6 -6 3 7 2 16 -1 19 -3 4 -6 -2 -5 -13z"/>
<path d="M6412 5989 c3 -8 13 -40 23 -71 17 -57 27 -68 40 -47 7 11 -42 116
-59 126 -5 4 -7 0 -4 -8z"/>
<path d="M6480 5849 c-10 -6 -12 -11 -4 -16 6 -5 10 -21 10 -37 -1 -16 5 -31
12 -33 7 -3 12 4 12 17 0 13 4 18 11 14 8 -4 -13 47 -25 63 -1 1 -8 -2 -16 -8z"/>
<path d="M6520 5770 c0 -5 5 -10 10 -10 6 0 10 5 10 10 0 6 -4 10 -10 10 -5 0
-10 -4 -10 -10z"/>
<path d="M4401 6034 c0 -11 3 -14 6 -6 3 7 2 16 -1 19 -3 4 -6 -2 -5 -13z"/>
<path d="M4397 5997 c-2 -7 -3 -22 -2 -34 1 -12 -3 -19 -8 -16 -6 4 -8 -7 -4
-28 5 -26 4 -30 -4 -19 -8 12 -10 9 -6 -12 2 -16 0 -28 -4 -28 -5 0 -9 -8 -9
-17 0 -15 1 -15 13 1 11 15 17 16 35 7 18 -10 21 -8 27 19 4 17 11 30 17 30 6
0 8 -9 5 -19 -3 -15 0 -19 14 -18 11 1 18 4 17 7 -2 4 -16 34 -33 68 -30 61
-50 81 -58 59z m44 -64 c13 -16 12 -17 -3 -4 -10 7 -18 15 -18 17 0 8 8 3 21
-13z"/>
<path d="M4482 5824 c3 -16 9 -38 13 -48 6 -14 5 -17 -3 -12 -9 5 -9 1 -2 -18
6 -16 6 -27 0 -31 -9 -6 -14 8 -11 28 1 5 -4 5 -10 1 -7 -4 -26 -11 -43 -15
-29 -8 -28 -8 7 -4 22 2 35 0 32 -6 -6 -9 -5 -10 33 -14 15 -1 21 2 18 10 -2
6 -7 37 -11 69 -4 31 -12 59 -18 63 -6 3 -8 -5 -5 -23z"/>
<path d="M4350 5806 c0 -7 -3 -28 -7 -46 -5 -28 -4 -32 10 -27 10 4 17 2 17
-3 0 -6 5 -10 10 -10 6 0 4 13 -5 30 -18 35 -19 57 -2 63 7 3 5 6 -5 6 -10 1
-18 -5 -18 -13z"/>
<path d="M4386 5757 c3 -10 9 -15 12 -12 3 3 0 11 -7 18 -10 9 -11 8 -5 -6z"/>
<path d="M6585 5651 c-5 -10 -4 -16 3 -19 7 -2 12 -10 12 -17 0 -8 9 -13 19
-12 21 1 17 27 -4 27 -8 0 -15 8 -17 18 -3 14 -5 15 -13 3z"/>
<path d="M6555 5610 c3 -5 8 -10 11 -10 2 0 4 5 4 10 0 6 -5 10 -11 10 -5 0
-7 -4 -4 -10z"/>
<path d="M6645 5580 c4 -7 2 -15 -5 -20 -8 -5 -7 -9 4 -13 19 -8 23 28 4 39
-7 5 -8 3 -3 -6z"/>
<path d="M6572 5551 c2 -7 7 -12 11 -12 12 1 9 15 -3 20 -7 2 -11 -2 -8 -8z"/>
<path d="M6680 5511 c0 -5 7 -15 16 -22 9 -7 20 -22 24 -34 7 -16 9 -16 9 -3
1 9 -6 23 -14 32 -8 8 -15 19 -15 25 0 6 -4 11 -10 11 -5 0 -10 -4 -10 -9z"/>
<path d="M6596 5495 c4 -8 10 -15 16 -15 5 0 6 -4 3 -10 -3 -5 -1 -10 5 -10 7
0 10 -7 6 -15 -3 -8 1 -21 9 -29 8 -8 15 -19 15 -25 0 -6 7 -11 15 -11 8 0 15
9 15 20 0 13 -5 18 -15 14 -9 -4 -17 1 -21 12 -13 44 -34 84 -44 84 -5 0 -7
-7 -4 -15z"/>
<path d="M6740 5434 c0 -6 7 -19 15 -30 8 -10 14 -14 14 -9 0 6 -6 19 -14 29
-8 11 -15 15 -15 10z"/>
<path d="M6690 5389 c0 -5 5 -7 10 -4 6 3 10 8 10 11 0 2 -4 4 -10 4 -5 0 -10
-5 -10 -11z"/>
<path d="M3959 5658 c-6 -21 -5 -38 2 -38 5 0 9 9 9 20 0 16 -7 28 -11 18z"/>
<path d="M3930 5542 c-8 -26 -14 -51 -15 -57 0 -5 -4 -16 -9 -24 -6 -9 -5 -12
4 -9 15 5 51 126 41 133 -4 2 -13 -17 -21 -43z"/>
<path d="M3889 5406 c-14 -31 -14 -38 -2 -53 10 -14 13 -15 12 -3 -1 8 1 23 5
32 4 9 6 26 4 39 -3 18 -5 16 -19 -15z"/>
<path d="M4306 5613 c-3 -4 -6 -12 -6 -20 0 -15 56 -18 65 -3 3 5 0 7 -8 4 -8
-3 -21 2 -30 10 -8 8 -17 12 -21 9z"/>
<path d="M4410 5574 c0 -8 5 -12 10 -9 6 3 10 10 10 16 0 5 -4 9 -10 9 -5 0
-10 -7 -10 -16z"/>
<path d="M4472 5573 c2 -9 9 -18 16 -21 18 -6 15 25 -4 32 -11 4 -14 1 -12
-11z"/>
<path d="M4520 5558 c0 -5 8 -12 19 -15 13 -3 17 -11 13 -26 -5 -21 -5 -21 12
-5 23 24 13 53 -19 54 -14 1 -25 -3 -25 -8z"/>
<path d="M4323 5479 c-2 -23 3 -25 10 -4 4 8 3 16 -1 19 -4 3 -9 -4 -9 -15z"/>
<path d="M4256 5439 c-8 -43 -8 -49 6 -49 6 0 9 2 6 6 -3 3 -2 21 2 40 4 18 4
34 0 34 -4 0 -10 -14 -14 -31z"/>
<path d="M4301 5424 c0 -11 3 -14 6 -6 3 7 2 16 -1 19 -3 4 -6 -2 -5 -13z"/>
<path d="M4230 5362 c0 -15 39 -22 47 -9 3 7 3 9 -2 5 -4 -4 -16 -3 -26 3 -11
5 -19 6 -19 1z"/>
<path d="M4452 5353 c-111 -5 -97 -23 18 -23 49 0 92 -4 95 -10 9 -14 88 -13
83 2 -4 10 -94 40 -108 36 -3 -1 -42 -4 -88 -5z"/>
<path d="M5930 5519 c0 -17 5 -40 11 -51 10 -18 8 -24 -7 -35 -18 -13 -18 -14
4 -19 23 -7 29 -20 11 -26 -5 -2 1 -16 14 -32 l25 -28 101 4 c56 3 104 8 107
11 13 12 -49 19 -119 13 -80 -7 -91 -3 -106 36 -10 28 -6 34 68 85 2 2 2 6 -2
9 -3 3 -20 -4 -37 -16 -32 -23 -44 -21 -46 8 -1 10 -2 29 -3 45 -2 37 -21 34
-21 -4z"/>
<path d="M6240 5524 c0 -9 5 -12 12 -8 7 5 9 2 5 -9 -4 -11 -2 -14 9 -10 7 3
14 1 14 -4 0 -6 12 -15 28 -22 24 -11 23 -9 -13 28 -42 44 -55 50 -55 25z"/>
<path d="M5905 5510 c3 -5 8 -10 11 -10 2 0 4 5 4 10 0 6 -5 10 -11 10 -5 0
-7 -4 -4 -10z"/>
<path d="M6241 5429 c-1 -9 7 -23 17 -30 15 -12 16 -12 6 1 -6 8 -14 22 -17
30 -5 13 -6 12 -6 -1z"/>
<path d="M6362 5414 c2 -9 14 -21 28 -26 l24 -9 -24 26 c-28 29 -33 31 -28 9z"/>
<path d="M6407 5359 c7 -7 15 -10 18 -7 3 3 -2 9 -12 12 -14 6 -15 5 -6 -5z"/>
<path d="M6880 5209 c0 -6 -27 -37 -60 -69 -53 -52 -58 -59 -40 -65 25 -8 82
-91 145 -210 26 -49 48 -91 49 -92 1 -2 0 12 -2 29 -3 18 -20 56 -39 85 -18
29 -37 61 -40 71 -4 9 -11 22 -15 27 -29 37 -78 106 -78 110 0 3 7 5 15 5 8 0
15 7 15 15 0 8 9 19 19 25 11 5 27 24 35 41 19 38 19 39 6 39 -5 0 -10 -5 -10
-11z"/>
<path d="M4668 5143 c7 -3 16 -2 19 1 4 3 -2 6 -13 5 -11 0 -14 -3 -6 -6z"/>
<path d="M6921 5084 c0 -11 3 -14 6 -6 3 7 2 16 -1 19 -3 4 -6 -2 -5 -13z"/>
<path d="M5605 5080 c3 -5 11 -10 16 -10 6 0 7 5 4 10 -3 6 -11 10 -16 10 -6
0 -7 -4 -4 -10z"/>
<path d="M4118 4946 c-10 -7 -16 -15 -13 -18 4 -4 -17 -34 -123 -173 -45 -58
-60 -66 -43 -24 19 47 24 64 28 89 2 14 10 46 18 72 8 26 10 50 5 53 -13 8
-17 -3 -29 -84 -7 -41 -14 -78 -17 -83 -12 -19 -32 -108 -25 -108 7 0 46 43
121 134 39 47 104 145 99 150 -2 2 -12 -1 -21 -8z"/>
<path d="M4932 4934 c-7 -8 -8 -14 -3 -14 10 0 25 19 20 25 -2 1 -10 -3 -17
-11z"/>
<path d="M5442 4888 c-6 -6 -12 -16 -12 -20 0 -8 -68 -107 -80 -118 -21 -18
-119 -150 -111 -150 23 0 226 270 219 291 -2 6 -8 5 -16 -3z"/>
<path d="M5660 4880 c0 -16 56 -62 118 -97 64 -37 75 -42 149 -72 87 -35 73
-23 -27 25 -52 24 -97 48 -100 53 -3 4 -20 16 -37 25 -18 9 -46 30 -63 46 -33
32 -40 36 -40 20z"/>
<path d="M4947 4787 c-10 -17 -54 -70 -97 -117 -44 -47 -80 -89 -80 -95 0 -12
174 166 197 202 10 15 12 28 7 33 -6 6 -16 -3 -27 -23z"/>
<path d="M4826 4794 c-3 -9 -6 -30 -6 -47 1 -38 14 -21 25 31 7 33 -8 46 -19
16z"/>
<path d="M5952 4787 c14 -15 68 -80 94 -112 8 -11 5 0 -8 23 -27 51 -71 102
-88 102 -8 0 -7 -4 2 -13z"/>
<path d="M3525 4530 c-13 -21 8 -49 89 -123 117 -107 146 -130 146 -119 0 6
-7 17 -15 26 -8 8 -15 21 -15 28 -1 22 -39 85 -40 65 0 -10 7 -25 15 -33 16
-17 20 -38 6 -32 -5 2 -44 36 -86 76 -53 50 -75 78 -71 88 4 11 2 15 -8 11
-10 -4 -13 -1 -9 9 6 16 -3 19 -12 4z"/>
<path d="M3647 4498 c9 -18 23 -42 31 -53 13 -19 14 -19 7 5 -13 52 -28 80
-40 80 -11 0 -10 -7 2 -32z"/>
<path d="M5304 4383 c3 -21 6 -55 6 -75 0 -21 5 -38 10 -38 11 0 14 108 4 134
-12 32 -27 16 -20 -21z"/>
<path d="M5287 4072 c-14 -61 -15 -88 -7 -127 5 -28 15 -75 21 -105 14 -76 19
-90 30 -90 13 0 11 206 -3 311 -6 49 -14 89 -17 89 -4 0 -14 -35 -24 -78z"/>
<path d="M3780 5119 c0 -6 6 -17 14 -25 19 -18 33 1 16 21 -15 18 -30 20 -30
4z"/>
<path d="M3772 5074 c-14 -16 -34 -65 -29 -71 3 -2 14 15 25 39 23 45 24 54 4
32z"/>
<path d="M3785 5009 c-4 -6 -5 -12 -2 -15 2 -3 7 2 10 11 7 17 1 20 -8 4z"/>
<path d="M7545 4990 c-3 -6 1 -7 9 -4 18 7 21 14 7 14 -6 0 -13 -4 -16 -10z"/>
<path d="M7656 4923 c-6 -14 -5 -15 5 -6 7 7 10 15 7 18 -3 3 -9 -2 -12 -12z"/>
<path d="M7636 4853 c-6 -14 -5 -15 5 -6 7 7 10 15 7 18 -3 3 -9 -2 -12 -12z"/>
<path d="M7480 4849 c0 -5 5 -7 10 -4 6 3 10 8 10 11 0 2 -4 4 -10 4 -5 0 -10
-5 -10 -11z"/>
<path d="M7460 4809 c0 -5 5 -7 10 -4 6 3 10 8 10 11 0 2 -4 4 -10 4 -5 0 -10
-5 -10 -11z"/>
<path d="M7250 4534 c0 -10 28 -33 33 -27 3 3 0 12 -8 19 -14 15 -25 18 -25 8z"/>
<path d="M4195 5030 c3 -5 8 -10 11 -10 2 0 4 5 4 10 0 6 -5 10 -11 10 -5 0
-7 -4 -4 -10z"/>
<path d="M3133 4735 c0 -8 4 -12 9 -9 4 3 8 0 8 -5 0 -6 7 -11 16 -11 8 0 13
-4 9 -9 -3 -5 -1 -12 5 -16 6 -4 7 -11 4 -17 -5 -8 1 -9 17 -5 21 5 22 4 7 -7
-15 -11 -15 -13 5 -26 20 -12 21 -12 9 3 -11 13 -10 17 5 25 16 9 15 12 -10
23 -15 7 -26 17 -24 23 4 13 -30 46 -48 46 -6 0 -12 -7 -12 -15z"/>
<path d="M3126 4685 c4 -8 8 -15 10 -15 2 0 4 7 4 15 0 8 -4 15 -10 15 -5 0
-7 -7 -4 -15z"/>
<path d="M3245 4610 c3 -5 8 -10 11 -10 2 0 4 5 4 10 0 6 -5 10 -11 10 -5 0
-7 -4 -4 -10z"/>
<path d="M2890 4535 c0 -8 7 -15 15 -15 8 0 15 -8 16 -17 0 -12 2 -14 6 -5 3
8 -4 22 -16 33 -17 16 -21 17 -21 4z"/>
<path d="M2950 4470 c6 -11 13 -20 16 -20 2 0 0 9 -6 20 -6 11 -13 20 -16 20
-2 0 0 -9 6 -20z"/>
<path d="M2905 4440 c3 -5 8 -10 11 -10 2 0 4 5 4 10 0 6 -5 10 -11 10 -5 0
-7 -4 -4 -10z"/>
<path d="M2990 4405 c-17 -21 -9 -27 13 -10 10 7 14 16 9 19 -5 3 -15 -1 -22
-9z"/>
<path d="M2957 4373 c-11 -11 -8 -20 7 -20 8 0 12 6 9 14 -6 15 -7 15 -16 6z"/>
<path d="M3015 4370 c-3 -5 1 -10 9 -10 9 0 16 5 16 10 0 6 -4 10 -9 10 -6 0
-13 -4 -16 -10z"/>
<path d="M3050 4360 c0 -5 7 -10 15 -10 8 0 15 -4 15 -10 0 -5 5 -10 11 -10
14 0 2 18 -22 30 -13 7 -19 7 -19 0z"/>
<path d="M3380 3980 c0 -11 5 -20 10 -20 6 0 10 9 10 20 0 11 -4 20 -10 20 -5
0 -10 -9 -10 -20z"/>
<path d="M2891 3951 c-10 -7 -10 -10 -1 -16 6 -4 16 -3 22 3 13 13 -4 23 -21
13z"/>
<path d="M2935 3949 c-9 -14 -2 -20 14 -10 8 6 9 11 3 15 -6 3 -14 1 -17 -5z"/>
<path d="M3405 3940 c-3 -5 -1 -10 4 -10 6 0 11 5 11 10 0 6 -2 10 -4 10 -3 0
-8 -4 -11 -10z"/>
<path d="M3416 3846 c-28 -13 -28 -13 -5 -19 13 -3 28 -2 34 3 7 6 16 6 21 2
4 -4 2 1 -5 11 -7 9 -14 17 -15 16 0 0 -14 -6 -30 -13z"/>
<path d="M3145 3840 c-3 -5 1 -10 9 -10 8 0 18 5 21 10 3 6 -1 10 -9 10 -8 0
-18 -4 -21 -10z"/>
<path d="M2880 3826 c0 -23 20 -29 38 -13 9 8 26 17 37 20 11 2 -1 5 -27 6
-36 1 -48 -3 -48 -13z"/>
<path d="M3032 3642 c-7 -5 -10 -16 -6 -25 4 -13 18 -17 53 -17 25 0 41 4 35
8 -6 4 -13 15 -17 25 -7 18 -42 23 -65 9z"/>
<path d="M3340 3633 c1 -19 16 -31 29 -24 7 5 10 14 7 20 -8 12 -36 15 -36 4z"/>
<path d="M3130 3530 c12 -8 9 -10 -13 -10 -16 0 -26 -4 -22 -9 6 -11 55 -10
55 2 0 4 0 12 0 17 0 6 -8 10 -17 10 -15 0 -16 -2 -3 -10z"/>
<path d="M3880 3254 c0 -8 5 -12 10 -9 6 4 8 11 5 16 -9 14 -15 11 -15 -7z"/>
<path d="M3220 3145 c0 -31 11 -41 40 -37 24 3 73 39 59 43 -2 1 -25 3 -51 4
-34 2 -48 -1 -48 -10z m60 -15 c0 -5 -4 -10 -9 -10 -6 0 -13 5 -16 10 -3 6 1
10 9 10 9 0 16 -4 16 -10z"/>
<path d="M6860 3474 c0 -12 10 -25 25 -32 24 -11 25 -10 25 23 0 31 -3 35 -25
33 -18 -2 -25 -8 -25 -24z"/>
<path d="M7959 3525 c-3 -2 -50 -6 -106 -9 -56 -3 -118 -8 -139 -12 -26 -5
-39 -3 -45 7 -8 12 -12 11 -23 -3 -7 -10 -22 -18 -32 -17 -18 0 -18 1 1 9 14
6 2 9 -42 9 -38 1 -63 -3 -63 -10 0 -6 -18 -9 -42 -7 -40 3 -43 1 -46 -24 -2
-18 2 -29 10 -30 17 -2 356 -6 473 -5 50 0 105 -1 123 -2 70 -5 229 -4 257 1
16 3 39 1 51 -4 36 -17 64 6 64 51 0 25 -5 41 -15 45 -8 3 -15 2 -15 -2 0 -9
-382 -8 -397 1 -5 4 -12 5 -14 2z"/>
<path d="M7051 3491 c-32 -24 -20 -39 26 -34 43 5 40 3 45 28 4 27 -39 31 -71
6z"/>
<path d="M7290 3496 c0 -12 -5 -16 -15 -12 -9 3 -15 0 -15 -9 0 -15 12 -19 40
-15 23 3 23 7 6 32 -14 19 -16 20 -16 4z"/>
<path d="M4055 2810 c-4 -6 5 -10 19 -10 14 0 26 5 26 10 0 6 -9 10 -19 10
-11 0 -23 -4 -26 -10z"/>
<path d="M4130 2810 c0 -5 7 -7 15 -4 8 4 15 8 15 10 0 2 -7 4 -15 4 -8 0 -15
-4 -15 -10z"/>
<path d="M3970 2790 c0 -5 6 -10 14 -10 8 0 18 5 21 10 3 6 -3 10 -14 10 -12
0 -21 -4 -21 -10z"/>
<path d="M3905 2776 c-80 -25 -175 -91 -175 -120 0 -6 17 6 38 26 32 32 68 51
172 96 34 15 14 13 -35 -2z"/>
<path d="M7827 1786 c-4 -11 29 -36 48 -36 10 0 -7 26 -24 37 -15 10 -20 9
-24 -1z"/>
<path d="M5520 1631 c0 -5 5 -13 10 -16 6 -3 10 -2 10 4 0 5 -4 13 -10 16 -5
3 -10 2 -10 -4z"/>
<path d="M5425 1581 c-3 -5 -1 -12 5 -16 5 -3 10 1 10 9 0 18 -6 21 -15 7z"/>
<path d="M5347 1512 c-15 -17 -15 -18 3 -19 11 -1 25 7 30 18 14 25 -10 26
-33 1z"/>
<path d="M5238 1419 c-10 -5 -18 -15 -18 -22 0 -8 3 -8 8 -2 4 6 18 16 32 22
14 6 18 12 10 12 -8 0 -23 -4 -32 -10z"/>
<path d="M5376 1348 c3 -4 11 -5 19 -1 21 7 19 12 -4 10 -11 0 -18 -5 -15 -9z"/>
<path d="M5325 1269 c-4 -6 -5 -12 -2 -15 2 -3 7 2 10 11 7 17 1 20 -8 4z"/>
<path d="M5185 1250 c-3 -5 -1 -10 4 -10 6 0 11 5 11 10 0 6 -2 10 -4 10 -3 0
-8 -4 -11 -10z"/>
<path d="M5300 1194 c0 -8 -7 -22 -15 -30 -18 -18 -20 -38 -3 -28 8 5 9 2 5
-9 -3 -10 -3 -17 1 -17 5 0 13 23 18 50 6 28 7 50 2 50 -4 0 -8 -7 -8 -16z"/>
<path d="M5145 1130 c-3 -5 -1 -10 4 -10 6 0 11 5 11 10 0 6 -2 10 -4 10 -3 0
-8 -4 -11 -10z"/>
<path d="M5128 1096 c-21 -21 -23 -27 -5 -20 8 3 13 -3 13 -16 0 -22 -7 -25
-23 -9 -7 7 -12 4 -16 -10 -3 -12 -1 -21 4 -21 5 0 9 -5 9 -11 0 -8 -5 -8 -15
1 -8 7 -12 17 -8 23 3 6 -5 2 -19 -9 -25 -18 -60 -62 -39 -50 5 4 13 1 17 -5
4 -8 3 -9 -4 -5 -13 8 -31 -28 -53 -103 -11 -36 -11 -45 -1 -49 10 -3 10 -6 0
-16 -18 -14 -41 -83 -33 -96 3 -5 -1 -23 -10 -40 -8 -16 -16 -33 -16 -37 -1
-5 -5 -18 -10 -31 -5 -13 -9 -31 -9 -41 0 -10 -3 -21 -7 -25 -12 -12 -41 -102
-59 -184 -6 -27 10 -29 29 -2 8 11 16 18 18 15 3 -2 31 17 63 43 32 26 72 56
87 68 16 11 26 24 22 27 -3 4 1 7 10 7 20 0 41 36 31 52 -5 7 -2 9 8 5 20 -7
38 11 38 37 0 12 6 32 13 46 7 14 19 45 27 70 7 25 18 51 24 58 5 8 9 30 8 50
-2 20 0 33 4 29 4 -4 13 10 20 30 16 46 4 65 -26 38 -11 -10 -17 -21 -14 -26
2 -4 -9 -3 -26 3 -23 7 -28 14 -21 21 6 6 11 21 11 33 0 15 8 24 25 28 14 4
25 11 25 16 0 6 5 10 11 10 7 0 9 -11 6 -30 -4 -17 -2 -30 4 -30 11 0 17 14
23 55 2 17 9 45 15 63 7 25 7 32 -2 29 -7 -2 -13 -16 -15 -30 -2 -15 -10 -27
-18 -27 -8 0 -14 -4 -14 -10 0 -5 -7 -10 -15 -10 -21 0 -19 12 6 33 30 26 19
42 -29 41 -30 -1 -42 3 -44 14 -3 14 -5 13 -20 -2z m67 -279 c-14 -8 -15 -11
-4 -18 10 -6 4 -9 -17 -9 -17 0 -34 3 -37 6 -7 7 29 38 53 46 22 7 26 -13 5
-25z m-75 -21 c0 -2 -9 -6 -20 -9 -11 -3 -20 -1 -20 4 0 5 9 9 20 9 11 0 20
-2 20 -4z m-3 -68 c-3 -8 -6 -5 -6 6 -1 11 2 17 5 13 3 -3 4 -12 1 -19z m-100
-174 c-3 -3 -12 -4 -19 -1 -8 3 -5 6 6 6 11 1 17 -2 13 -5z"/>
<path d="M9511 8744 c0 -11 3 -14 6 -6 3 7 2 16 -1 19 -3 4 -6 -2 -5 -13z"/>
<path d="M8420 7884 c0 -12 7 -27 15 -34 13 -11 13 -15 3 -21 -8 -6 -9 -9 -2
-9 6 0 18 8 25 18 7 9 9 13 4 9 -5 -4 -17 7 -27 25 -14 27 -17 29 -18 12z"/>
<path d="M8795 7890 c4 -6 11 -8 16 -5 14 9 11 15 -7 15 -8 0 -12 -5 -9 -10z"/>
<path d="M8488 7863 c7 -3 16 -2 19 1 4 3 -2 6 -13 5 -11 0 -14 -3 -6 -6z"/>
<path d="M8578 7863 c7 -3 16 -2 19 1 4 3 -2 6 -13 5 -11 0 -14 -3 -6 -6z"/>
<path d="M8458 7759 c5 -13 15 -25 23 -28 11 -3 11 -1 -1 14 -8 10 -14 21 -12
24 2 3 -1 7 -7 9 -7 2 -8 -4 -3 -19z"/>
<path d="M8938 7733 c7 -3 16 -2 19 1 4 3 -2 6 -13 5 -11 0 -14 -3 -6 -6z"/>
<path d="M567 5718 c-24 -13 -22 -55 3 -68 30 -16 60 -3 60 25 0 29 -39 57
-63 43z"/>
<path d="M75 5707 c-40 -24 -19 -76 25 -62 17 5 20 13 18 38 -3 35 -15 41 -43
24z"/>
<path d="M318 5513 c-34 -9 -32 -43 5 -80 l35 -35 36 33 c27 25 35 39 30 52
-11 29 -59 43 -106 30z"/>
<path d="M351 5304 c-11 -24 -5 -29 23 -18 20 8 21 30 2 37 -8 3 -18 -5 -25
-19z"/>
<path d="M525 5160 c3 -5 12 -10 20 -10 8 0 17 5 20 10 4 6 -5 10 -20 10 -15
0 -24 -4 -20 -10z"/>
<path d="M5123 3078 c-6 -7 -27 -38 -48 -68 -21 -30 -72 -95 -114 -143 -120
-140 -130 -152 -106 -140 33 18 234 262 273 332 15 25 11 39 -5 19z"/>
<path d="M5228 3073 c6 -2 18 -2 25 0 6 3 1 5 -13 5 -14 0 -19 -2 -12 -5z"/>
<path d="M5655 3068 c11 -6 47 -32 80 -58 77 -60 102 -72 50 -25 -52 48 -120
95 -137 95 -7 0 -4 -6 7 -12z"/>
<path d="M4244 2345 c-42 -33 -69 -101 -92 -226 -11 -57 -23 -112 -27 -121
-10 -24 11 -24 24 0 5 9 18 67 29 128 23 127 43 177 84 207 27 20 36 37 21 37
-5 0 -22 -11 -39 -25z"/>
<path d="M4403 2038 c-30 -38 -111 -322 -100 -350 8 -21 35 52 67 183 17 68
39 136 50 152 16 20 17 27 7 27 -8 0 -19 -6 -24 -12z"/>
<path d="M4653 1692 c-12 -8 -53 -73 -53 -84 0 -19 19 -4 48 37 29 41 31 63 5
47z"/>
<path d="M5151 121 c17 -49 59 -121 70 -121 6 0 -7 30 -27 68 -45 81 -59 98
-43 53z"/>
</g>
</svg>
